HIERARCHY
ROOT Hips
{
	OFFSET 0.000000 0.000000 0.000000
	CHANNELS 6 Xposition Yposition Zposition Xrotation Yrotation Zrotation
	JOINT Chest
	{
		OFFSET 0.000000 14.998021 134.982056
		CHANNELS 6 Xposition Yposition Zposition Xrotation Yrotation Zrotation
		JOINT Chest2
		{
			OFFSET 0.000000 0.000007 98.640320
			CHANNELS 6 Xposition Yposition Zposition Xrotation Yrotation Zrotation
			JOINT Chest3
			{
				OFFSET 0.000000 0.268403 90.094391
				CHANNELS 6 Xposition Yposition Zposition Xrotation Yrotation Zrotation
				JOINT Chest4
				{
					OFFSET 0.000000 0.268673 89.993713
					CHANNELS 6 Xposition Yposition Zposition Xrotation Yrotation Zrotation
					JOINT Neck
					{
						OFFSET 0.000000 0.000010 125.879730
						CHANNELS 6 Xposition Yposition Zposition Xrotation Yrotation Zrotation
						JOINT Head
						{
							OFFSET 0.000000 0.408617 96.176331
							CHANNELS 6 Xposition Yposition Zposition Xrotation Yrotation Zrotation
							End Site
							{
								OFFSET 0.000000 0.187551 189.397156
							}
						}
					}
					JOINT RightCollar
					{
						OFFSET -27.930449 0.000005 70.722137
						CHANNELS 6 Xposition Yposition Zposition Xrotation Yrotation Zrotation
						JOINT RightShoulder
						{
							OFFSET -134.678040 0.000000 0.000000
							CHANNELS 6 Xposition Yposition Zposition Xrotation Yrotation Zrotation
							JOINT RightElbow
							{
								OFFSET -264.798676 0.000000 0.000000
								CHANNELS 6 Xposition Yposition Zposition Xrotation Yrotation Zrotation
								JOINT RightWrist
								{
									OFFSET -219.137085 -0.109474 0.000000
									CHANNELS 6 Xposition Yposition Zposition Xrotation Yrotation Zrotation
									End Site
									{
										OFFSET -165.338013 0.000000 0.000000
									}
								}
							}
						}
					}
					JOINT LeftCollar
					{
						OFFSET 27.930449 0.000005 70.722137
						CHANNELS 6 Xposition Yposition Zposition Xrotation Yrotation Zrotation
						JOINT LeftShoulder
						{
							OFFSET 134.678040 0.000000 0.000000
							CHANNELS 6 Xposition Yposition Zposition Xrotation Yrotation Zrotation
							JOINT LeftElbow
							{
								OFFSET 264.798676 0.000000 0.000000
								CHANNELS 6 Xposition Yposition Zposition Xrotation Yrotation Zrotation
								JOINT LeftWrist
								{
									OFFSET 219.137085 -0.109474 0.000000
									CHANNELS 6 Xposition Yposition Zposition Xrotation Yrotation Zrotation
									End Site
									{
										OFFSET 165.338013 0.000000 0.000000
									}
								}
							}
						}
					}
				}
			}
		}
	}
	JOINT RightHip
	{
		OFFSET -112.061028 0.074131 0.667181
		CHANNELS 6 Xposition Yposition Zposition Xrotation Yrotation Zrotation
		JOINT RightKnee
		{
			OFFSET 0.000000 0.118733 -350.283783
			CHANNELS 6 Xposition Yposition Zposition Xrotation Yrotation Zrotation
			JOINT RightAnkle
			{
				OFFSET 0.000000 0.179805 -378.945648
				CHANNELS 6 Xposition Yposition Zposition Xrotation Yrotation Zrotation
				JOINT RightToe
				{
					OFFSET 0.000000 -188.305115 -81.964233
					CHANNELS 6 Xposition Yposition Zposition Xrotation Yrotation Zrotation
					End Site
					{
						OFFSET 0.000000 -74.059799 -16.416992
					}
				}
			}
		}
	}
	JOINT LeftHip
	{
		OFFSET 112.061028 0.071855 0.646698
		CHANNELS 6 Xposition Yposition Zposition Xrotation Yrotation Zrotation
		JOINT LeftKnee
		{
			OFFSET 0.000000 0.118733 -350.283783
			CHANNELS 6 Xposition Yposition Zposition Xrotation Yrotation Zrotation
			JOINT LeftAnkle
			{
				OFFSET 0.000000 0.179805 -378.945679
				CHANNELS 6 Xposition Yposition Zposition Xrotation Yrotation Zrotation
				JOINT LeftToe
				{
					OFFSET 0.000000 -188.305115 -81.964233
					CHANNELS 6 Xposition Yposition Zposition Xrotation Yrotation Zrotation
					End Site
					{
						OFFSET 0.000000 -74.059814 -16.416992
					}
				}
			}
		}
	}
}
MOTION
Frames: 5
Frame Time: 0.041667
-16362.015625 -9426.538086 818.054626 16.426540 19.605836 -139.204036 0.001363 14.997924 134.982986 12.046463 3.731520 4.492116 -0.001106 -0.000327 98.640167 -0.436857 1.321121 2.237580 0.001598 0.268695 90.094406 5.383579 1.320889 2.237715 -0.000229 0.267917 89.993858 9.877697 1.137724 1.582631 -0.000520 -0.001309 125.879608 11.250209 -1.395350 -5.468059 -0.001205 0.410378 96.175690 -15.036494 -0.213142 -10.476726 -27.932188 -0.001026 70.721855 -2.640859 -5.777070 4.383150 -134.678238 -0.000070 -0.000095 11.412755 -71.119017 17.732757 -264.798096 0.001195 -0.001221 29.527656 -9.870097 49.195537 -219.136551 -0.108595 -0.001005 4.221585 -0.698764 0.551571 27.929159 -0.001280 70.721863 -11.945945 10.937184 2.036261 134.677734 0.001589 -0.000080 -29.688100 49.311630 38.436370 264.798859 -0.001571 -0.001881 28.491801 11.859930 -21.919016 219.137207 -0.112164 -0.001903 -1.485491 -2.467289 4.792004 -112.059082 0.074006 0.667542 27.766990 -1.263754 2.950251 0.001293 0.118100 -350.283936 46.502243 -2.595797 -1.957201 0.000496 0.179308 -378.944977 17.104860 5.445196 20.960783 -0.000175 -188.304871 -81.964050 -48.620183 24.508906 7.652885 112.061905 0.072059 0.647461 4.137414 7.325806 -19.403096 -0.002018 0.118425 -350.283752 15.393424 1.550121 -1.134659 0.000031 0.180375 -378.945770 -2.650488 9.314698 20.538562 -0.001347 -188.304871 -81.964783 -0.000003 -0.000002 -0.000001 
-16380.051758 -9412.542969 820.611877 17.267131 20.162199 -139.803126 0.001542 14.998810 134.981537 12.450284 3.920737 4.110089 0.000624 0.000650 98.640663 -0.260012 1.427251 2.086330 -0.002400 0.268148 90.094292 5.560470 1.426966 2.086736 0.000931 0.268490 89.993660 10.010884 1.206241 1.463373 0.000838 -0.000916 125.879799 11.091432 -1.220949 -5.239143 -0.002671 0.408373 96.176033 -15.330435 0.017845 -9.989490 -27.929991 -0.001231 70.722160 -2.575123 -5.833048 4.405247 -134.676956 -0.001488 -0.000010 11.112194 -71.559086 17.131339 -264.798126 -0.001904 -0.000526 30.109912 -8.386367 48.822643 -219.136902 -0.109089 0.000834 4.405924 1.427762 1.601777 27.931316 -0.001499 70.722092 -10.822389 10.694179 1.744409 134.676910 0.001233 0.000085 -30.434346 49.337882 38.126994 264.798920 -0.001194 -0.001142 27.126655 12.756404 -21.603656 219.137497 -0.110276 0.000531 -1.824522 -2.597377 4.835111 -112.059761 0.074677 0.666137 25.720647 -0.725101 0.538905 -0.001317 0.118623 -350.283691 51.464301 -1.298616 -2.408516 -0.000631 0.179845 -378.946259 20.946647 4.417879 21.238654 -0.000507 -188.306091 -81.962860 -44.049242 25.651014 4.714505 112.062859 0.071509 0.645690 6.014501 7.481579 -18.071501 0.001587 0.119268 -350.284241 16.520156 1.715728 -2.663862 -0.001565 0.179716 -378.945709 -3.084094 8.649258 20.813229 -0.001015 -188.305099 -81.963562 -0.000002 0.000000 -0.000004 
-16398.000000 -9398.262695 823.699707 18.337012 20.843606 -140.286799 0.001657 14.997404 134.982574 13.057149 4.007223 3.612601 0.000318 -0.000129 98.640579 0.004996 1.495649 1.878863 -0.001388 0.269217 90.094734 5.825467 1.495382 1.879323 -0.001251 0.269153 89.994095 10.209798 1.242701 1.304589 -0.002396 0.000327 125.879623 10.865725 -0.874810 -5.033346 0.001556 0.407073 96.175400 -15.736454 0.571972 -9.469651 -27.932535 -0.000208 70.722115 -2.625239 -5.903674 4.531373 -134.678192 0.000238 -0.000135 11.597797 -71.743412 17.202907 -264.798798 0.000695 -0.000902 30.050063 -7.616183 48.579393 -219.136566 -0.109634 0.000442 4.375939 3.781256 2.634381 27.928085 0.000252 70.721985 -9.351520 10.355880 1.622672 134.676147 0.000497 -0.000377 -30.308377 50.276309 36.460567 264.798950 -0.000813 0.000186 25.269851 13.635631 -21.038600 219.136780 -0.110085 -0.001069 -2.243925 -2.462077 5.053975 -112.060394 0.074310 0.667968 24.050409 -0.259093 -2.718012 0.000489 0.118978 -350.283844 55.918595 0.953491 -1.827468 -0.001050 0.180106 -378.945221 22.983407 2.341196 20.288075 -0.000366 -188.306549 -81.961678 -35.466509 25.388378 0.019974 112.062592 0.071870 0.647216 8.584761 7.874512 -15.761263 -0.000632 0.118649 -350.283722 17.177953 1.115026 -5.022270 -0.001587 0.179087 -378.945587 -3.690992 7.420252 20.758707 -0.000479 -188.305740 -81.964478 -0.000003 0.000000 0.000000 
-16414.800781 -9384.608398 826.980957 19.175584 21.212361 -140.724505 0.001310 14.997740 134.982422 13.436004 4.010391 3.138330 -0.000364 0.000176 98.640152 0.168543 1.528992 1.673704 0.001022 0.267660 90.094093 5.988975 1.528820 1.673865 -0.000320 0.268268 89.993713 10.332337 1.253575 1.149037 0.001098 -0.001617 125.879982 10.791157 -0.547212 -4.823273 0.000625 0.408940 96.176262 -15.866123 1.078809 -8.949676 -27.929625 -0.001153 70.722107 -2.790701 -5.992459 4.586455 -134.677505 0.000165 0.000127 11.564912 -71.854813 16.553192 -264.798920 -0.001249 -0.000029 29.949792 -7.465128 48.358163 -219.137314 -0.108540 -0.000547 4.142580 5.548206 3.576886 27.931047 -0.001204 70.722229 -8.255960 10.157182 1.597330 134.677216 -0.001293 0.000464 -29.223084 51.526653 34.182102 264.798615 -0.000261 -0.000516 23.975060 13.757219 -20.481897 219.136993 -0.111053 -0.003841 -2.404931 -2.110390 5.644305 -112.058716 0.073700 0.668028 22.073670 0.095605 -5.494752 -0.001452 0.120256 -350.283813 59.475498 3.034918 -1.089873 -0.000097 0.181080 -378.946289 23.095877 0.791417 18.627662 0.000794 -188.304871 -81.965469 -29.156616 23.741592 -3.064602 112.063065 0.071259 0.647337 10.983249 8.089813 -13.733932 0.001836 0.118939 -350.284149 17.323163 0.533899 -6.544806 0.002058 0.180911 -378.945618 -4.242228 6.305318 20.241802 -0.000720 -188.305374 -81.964653 0.000003 -0.000001 -0.000002 
-16429.710938 -9372.079102 830.458862 19.542477 20.994133 -141.169792 0.002496 14.998595 134.981339 13.362974 3.906343 2.757676 0.000266 0.000940 98.640854 0.132065 1.512090 1.498143 -0.000291 0.267109 90.094162 5.952504 1.511993 1.498034 0.001221 0.268178 89.993866 10.304731 1.229391 1.018473 -0.001831 -0.001663 125.879539 10.994410 -0.258576 -4.598012 0.000167 0.406481 96.176216 -15.485654 1.491055 -8.422031 -27.932615 -0.001877 70.721855 -3.097712 -6.116053 4.513120 -134.679184 0.000776 0.000154 10.524083 -71.886375 14.635881 -264.798615 -0.002165 0.000062 29.919196 -8.210469 48.099999 -219.136398 -0.109154 -0.000127 3.649506 6.305581 4.368222 27.927917 -0.002807 70.721748 -7.853038 10.228016 1.657627 134.677841 0.000693 0.000489 -26.446240 53.095831 30.960605 264.798431 0.000341 0.000579 23.427173 12.773848 -19.851655 219.136444 -0.109083 -0.000620 -2.160120 -1.410894 6.798719 -112.058601 0.075561 0.666625 19.345503 0.162950 -7.419700 0.003693 0.119872 -350.283630 62.165506 4.567728 -0.109679 0.000053 0.178993 -378.946198 20.391298 0.766151 15.970229 0.001595 -188.305389 -81.963028 -27.507397 20.421250 -2.948470 112.064964 0.071961 0.645629 12.875950 7.887526 -12.387908 0.002989 0.118797 -350.284058 16.763062 0.347920 -6.341511 0.000213 0.178925 -378.945709 -4.628014 5.527752 18.915864 0.000569 -188.305664 -81.964172 -0.000002 -0.000000 -0.000002 
